<svg xmlns="http://www.w3.org/2000/svg" viewBox="0 0 24 24" fill="none"><path d="M12 2c-5.53 0-10 4.47-10 10 0 4.42 2.87 8.17 6.84 9.5.5.09.68-.22.68-.48 0-.24-.01-.87-.01-1.71-2.78.6-3.37-1.19-3.37-1.19-.45-1.15-1.11-1.46-1.11-1.46-.91-.62.07-.61.07-.61 1 .07 1.53 1.03 1.53 1.03.9 1.53 2.36 1.09 2.94.83.09-.65.35-1.09.63-1.34-2.22-.25-4.55-1.11-4.55-4.95 0-1.09.39-1.98 1.03-2.68-.1-.25-.45-1.27.1-2.64 0 0 .84-.27 2.75 1.02.81-.22 1.66-.32 2.51-.32.85 0 1.7.11 2.5.32 1.9-1.29 2.74-1.02 2.74-1.02.56 1.37.21 2.39.1 2.64.64.7 1.03 1.59 1.03 2.68 0 3.85-2.34 4.7-4.57 4.95.36.31.68.93.68 1.88 0 1.36-.01 2.45-.01 2.78 0 .26.18.58.69.48A10.01 10.01 0 0 0 22 12c0-5.53-4.47-10-10-10Z" fill="currentColor"/></svg>